HIERARCHY
ROOT Hips
{
	OFFSET -0.179506 -22.333345 2.821913
	CHANNELS 6 Xposition Yposition Zposition Zrotation Yrotation Xrotation 
	JOINT LeftUpLeg
	{
		OFFSET 6.951974 -9.140623 -0.681533
		CHANNELS 3 Zrotation Yrotation Xrotation
		JOINT LeftLeg
		{
			OFFSET 3.427654 -37.519855 -0.449580
			CHANNELS 3 Zrotation Yrotation Xrotation
			JOINT LeftFoot
			{
				OFFSET -1.359570 -39.796059 -4.369333
				CHANNELS 3 Zrotation Yrotation Xrotation
				JOINT LeftToe
				{
					OFFSET 2.635814 -5.579078 11.928840
					CHANNELS 3 Zrotation Yrotation Xrotation
					End Site
					{
						OFFSET 0.000000 0.000000 0.000000
					}
				}
			}
		}
	}
	JOINT RightUpLeg
	{
		OFFSET -6.767048 -9.052170 -0.431982
		CHANNELS 3 Zrotation Yrotation Xrotation
		JOINT RightLeg
		{
			OFFSET -3.829005 -38.256897 -0.885003
			CHANNELS 3 Zrotation Yrotation Xrotation
			JOINT RightFoot
			{
				OFFSET 1.577377 -39.841461 -4.231180
				CHANNELS 3 Zrotation Yrotation Xrotation
				JOINT RightToe
				{
					OFFSET -2.537174 -4.814398 12.334795
					CHANNELS 3 Zrotation Yrotation Xrotation
					End Site
					{
						OFFSET 0.000000 0.000000 0.000000
					}
				}
			}
		}
	}
	JOINT Spine
	{
		OFFSET -0.253288 10.896323 -2.669631
		CHANNELS 3 Zrotation Yrotation Xrotation
		JOINT Spine1
		{
			OFFSET 0.548704 13.518043 0.109247
			CHANNELS 3 Zrotation Yrotation Xrotation
			JOINT Spine2
			{
				OFFSET 0.145701 5.292222 2.542457
				CHANNELS 3 Zrotation Yrotation Xrotation
				JOINT Neck
				{
					OFFSET -0.277840 21.387037 -4.285703
					CHANNELS 3 Zrotation Yrotation Xrotation
					JOINT Head
					{
						OFFSET 0.515184 6.496960 5.134897
						CHANNELS 3 Zrotation Yrotation Xrotation
						End Site
						{
							OFFSET 0.000000 0.000000 0.000000
						}
					}
				}
				JOINT LeftShoulder
				{
					OFFSET 7.884473 12.174932 -3.408961
					CHANNELS 3 Zrotation Yrotation Xrotation
					JOINT LeftArm
					{
						OFFSET 9.097692 3.046888 -0.886815
						CHANNELS 3 Zrotation Yrotation Xrotation
						JOINT LeftForeArm
						{
							OFFSET 25.961220 -1.277207 -2.745643
							CHANNELS 3 Zrotation Yrotation Xrotation
							JOINT LeftHand
							{
								OFFSET 24.923361 0.898606 -0.117091
								CHANNELS 3 Zrotation Yrotation Xrotation
								End Site
								{
									OFFSET 0.000000 0.000000 0.000000
								}
							}
						}
					}
				}
				JOINT RightShoulder
				{
					OFFSET -8.175920 11.883285 -3.861528
					CHANNELS 3 Zrotation Yrotation Xrotation
					JOINT RightArm
					{
						OFFSET -9.601238 3.255117 -0.914307
						CHANNELS 3 Zrotation Yrotation Xrotation
						JOINT RightForeArm
						{
							OFFSET -25.374195 -1.332924 -2.140099
							CHANNELS 3 Zrotation Yrotation Xrotation
							JOINT RightHand
							{
								OFFSET -25.529810 0.777228 -0.555919
								CHANNELS 3 Zrotation Yrotation Xrotation
								End Site
								{
									OFFSET 0.000000 0.000000 0.000000
								}
							}
						}
					}
				}
			}
		}
	}
}
MOTION
Frames: 15
Frame Time: 0.033333
-36.405125 127.151733 90.580322 -87.514871 3.599770 79.572240 23.980512 11.120861 6.960799 -0.945900 6.870784 31.458584 -2.274571 2.041887 -27.979368 nan nan nan -10.251476 -12.812229 -15.065823 2.989949 -15.004533 31.851605 3.134018 0.421423 -13.028706 nan nan nan -4.541028 -1.246014 10.273003 5.344161 -5.559922 6.651280 3.156136 0.036635 -3.721537 0.030438 -14.902067 16.481281 5.011109 -20.224234 15.053236 -15.904292 -23.186032 3.134101 -72.144820 -41.980531 34.079149 -120.597678 -88.517571 147.049668 24.395900 -28.872855 -32.574840 19.990658 19.241792 7.749461 25.639168 19.393926 -14.319043 -40.756682 33.983050 -36.880876 -12.883717 20.216053 -12.126554 
-36.358521 127.181320 90.592323 -87.387774 3.549009 79.696055 23.892508 11.115465 6.901118 -0.937919 6.813972 31.237006 -2.301831 1.891706 -27.860177 nan nan nan -10.293712 -12.721640 -15.350634 2.808385 -15.249180 32.128124 3.188490 0.548731 -13.094838 nan nan nan -4.520923 -1.589906 10.264694 5.333581 -5.766250 6.691583 3.065685 0.333191 -3.801902 0.103871 -14.741573 16.240141 4.930617 -20.319953 15.012529 -15.559136 -22.945234 2.798727 -72.169517 -42.030820 34.017300 -127.590688 -88.439769 153.749446 23.519412 -29.192026 -32.445445 20.044997 19.301617 7.814483 25.569874 19.745911 -14.603344 -41.541291 33.990201 -37.439182 -11.675777 20.503962 -10.953653 
-36.286556 127.110359 90.603355 -87.094532 3.755270 79.632551 23.951768 10.555884 6.929966 -1.120648 6.713133 30.912809 -2.097938 2.316697 -27.797312 nan nan nan -10.285890 -12.567679 -15.216610 2.962834 -15.493522 32.088945 3.644844 0.229825 -13.152708 nan nan nan -4.867355 0.314295 8.815301 6.430800 -5.105512 8.790628 3.881981 -1.580915 -3.721368 0.724725 -15.064399 14.799716 4.151626 -21.151253 14.856281 -16.329977 -24.963134 3.404489 -71.092765 -43.111967 33.812107 169.151115 -89.111098 -143.426726 22.445131 -29.168796 -31.205310 19.413591 19.513802 6.598694 24.368823 18.847754 -14.540161 -42.423674 33.934081 -38.307712 -10.434071 19.809466 -10.580329 
-36.254799 127.066467 90.618454 -86.886215 3.764826 79.820011 23.796900 10.460153 6.701208 -1.006611 6.683224 30.729493 -2.121690 2.318296 -27.716015 nan nan nan -10.299105 -12.601009 -15.429663 2.815586 -15.744902 32.207813 3.622177 0.277070 -13.234145 nan nan nan -4.788713 0.293265 8.669606 6.534590 -5.084642 8.730483 3.951204 -1.797870 -3.740415 0.698411 -15.035282 14.616808 3.995268 -21.102753 14.778740 -16.370376 -25.047573 3.341808 -70.848509 -43.217077 33.646227 160.120848 -88.925465 -134.306557 21.980824 -29.313011 -31.336927 19.252542 19.592646 6.487640 24.135723 18.932664 -14.667266 -42.642363 34.133603 -38.564882 -10.128299 19.918030 -11.217153 
-36.204517 127.035820 90.639992 -86.657665 3.772298 79.981446 23.627077 10.212784 6.502490 -0.975106 6.659734 30.507912 -2.248505 2.373575 -27.613147 nan nan nan -10.309520 -12.611657 -15.570566 2.717905 -15.921091 32.220415 3.633179 0.231738 -13.260253 nan nan nan -4.712535 0.243502 8.546080 6.593080 -5.137227 8.714086 3.976650 -1.907479 -3.773861 0.676536 -15.082370 14.505714 3.968796 -20.999876 14.630599 -16.279027 -25.112071 3.242841 -70.662686 -43.306188 33.586864 153.032618 -88.767622 -127.296027 21.862849 -29.329908 -32.157123 18.993059 19.641682 6.300273 24.007301 18.920142 -14.699207 -42.855640 34.162534 -38.644138 -8.714503 20.076412 -11.256300 
-36.159737 127.020622 90.675026 -86.530750 3.750018 80.008271 23.511691 10.011781 6.541972 -1.005695 6.621984 30.201081 -2.341159 2.348182 -27.450010 nan nan nan -10.315456 -12.577784 -15.530986 2.635358 -15.988669 32.087211 3.706958 0.186117 -13.244459 nan nan nan -4.682073 0.290696 8.481952 6.613709 -5.153643 8.786417 3.991852 -1.961276 -3.792358 0.729962 -15.165813 14.401085 4.029443 -21.007276 14.439192 -16.066088 -25.193914 3.179447 -70.589807 -43.488675 33.615709 146.512386 -88.720027 -120.967756 21.968837 -29.314199 -32.704049 18.773780 19.637500 6.052783 23.936818 18.980828 -14.677961 -42.931751 34.132667 -38.909047 -8.146449 20.202948 -11.048990 
-36.110825 127.004784 90.723007 -86.414734 3.711273 79.988229 23.416758 9.935933 6.596402 -1.023902 6.542704 29.976568 -2.435776 2.281015 -27.335341 nan nan nan -10.328857 -12.566735 -15.387041 2.582283 -15.992373 31.843300 3.760660 0.171046 -13.175971 nan nan nan -4.736658 0.374009 8.565942 6.654903 -5.152936 8.711775 4.045105 -1.956621 -3.764889 0.876681 -15.284461 14.234962 4.084747 -21.055823 14.295627 -15.838565 -25.285220 3.115928 -70.602520 -43.726547 33.705639 137.654208 -88.762991 -112.340009 21.960299 -29.421585 -32.769040 18.618149 19.560057 5.755935 23.836522 19.027500 -14.646901 -42.963207 34.139271 -39.231770 -7.948612 20.133200 -10.914989 
-36.057018 126.974480 90.766472 -86.260772 3.646790 79.995454 23.276961 9.950839 6.555667 -1.002578 6.420355 29.849634 -2.472054 2.239748 -27.285008 nan nan nan -10.372835 -12.644388 -15.296908 2.513594 -15.926514 31.660650 3.820324 0.206162 -13.138800 nan nan nan -4.835810 0.427475 8.704321 6.701373 -5.165019 8.504706 4.126783 -1.946348 -3.689644 1.011260 -15.445807 13.983900 4.050307 -21.120097 14.314220 -15.682313 -25.318584 2.977187 -70.633063 -43.876642 33.838546 129.376919 -88.840494 -104.353965 22.171611 -29.367559 -32.690941 18.534999 19.529040 5.500309 23.613939 19.004645 -14.605264 -42.947809 34.145893 -39.551952 -7.838101 20.133162 -10.909273 
-36.026688 126.939072 90.795395 -86.185092 3.608174 79.976624 23.212836 10.038201 6.609708 -1.019951 6.294134 29.692967 -2.469344 2.240726 -27.215326 nan nan nan -10.392867 -12.775727 -15.223769 2.474558 -15.719073 31.643962 3.868891 0.408055 -13.212663 nan nan nan -4.859914 0.453958 8.748891 6.700083 -5.166687 8.401556 4.169997 -1.929115 -3.602581 1.048180 -15.586453 13.774803 4.030391 -21.154910 14.376656 -15.486924 -25.354065 2.703504 -70.659063 -43.854482 33.930995 125.550795 -88.943401 -100.617068 22.620905 -29.029184 -32.125906 18.352513 19.609367 5.268326 23.532942 18.919990 -14.616847 -42.936550 34.155376 -39.891924 -7.508663 20.224142 -10.916866 
-36.004723 126.908684 90.815994 -86.225129 3.601273 79.929669 23.239361 10.178936 6.758440 -1.067440 6.236893 29.518872 -2.545522 2.248289 -27.178748 nan nan nan -10.351882 -12.829400 -15.171408 2.492399 -15.358317 31.706083 3.859154 0.639809 -13.319838 nan nan nan -4.830988 0.498796 8.748629 6.683494 -5.126457 8.390853 4.174991 -1.895447 -3.563170 1.118757 -15.598937 13.632915 4.069435 -21.209010 14.433438 -15.238111 -25.385395 2.460688 -70.778319 -43.777436 33.946082 118.983691 -88.999008 -93.816110 22.821068 -28.762944 -31.731913 18.149149 19.669595 5.109931 23.557019 18.906116 -14.740001 -42.978857 34.160154 -39.984832 -7.295951 20.218635 -10.968453 
-35.979019 126.886551 90.828011 -86.262616 3.569030 79.893397 23.219719 10.290855 6.894718 -1.106793 6.147530 29.310404 -2.605836 2.296908 -27.165523 nan nan nan -10.362155 -12.900558 -15.161744 2.512281 -15.205792 31.689355 3.879457 0.719015 -13.319498 nan nan nan -4.835110 0.568959 8.740113 6.672850 -5.088967 8.385070 4.179841 -1.873848 -3.563187 1.196211 -15.575272 13.483823 4.059073 -21.330818 14.545515 -15.056811 -25.408778 2.362424 -70.871255 -43.742291 33.861519 109.798291 -89.002005 -84.369848 22.770027 -28.716207 -31.726611 18.023008 19.703533 5.047315 23.572673 18.961854 -14.874974 -43.100398 34.129578 -39.992692 -7.483165 20.170751 -11.111223 
-35.929626 126.857529 90.833824 -86.225551 3.505528 79.892155 23.122776 10.427487 6.914676 -1.052630 6.042653 29.153492 -2.605117 2.246568 -27.122554 nan nan nan -10.425882 -13.030537 -15.201209 2.438106 -15.291707 31.605315 3.939430 0.774014 -13.271364 nan nan nan -4.847033 0.635681 8.795413 6.635868 -5.073893 8.281774 4.181848 -1.893769 -3.562566 1.280528 -15.609861 13.300200 3.987676 -21.408474 14.715424 -14.927773 -25.374722 2.273123 -70.886641 -43.747248 33.752994 103.411477 -89.068819 -77.925890 22.581414 -28.813406 -31.580465 17.896416 19.696087 4.942245 23.630287 19.079159 -14.956511 -43.208328 34.012332 -40.129879 -7.665115 20.245017 -10.962423 
-35.860874 126.820152 90.843513 -86.174442 3.425431 79.944855 22.976368 10.526044 6.835797 -0.966527 6.017764 29.046620 -2.670121 2.147378 -27.095452 nan nan nan -10.516986 -13.093353 -15.286809 2.348702 -15.338939 31.608172 4.065693 0.957125 -13.246220 nan nan nan -4.830934 0.676960 8.782750 6.584022 -5.053473 8.183558 4.127354 -1.914203 -3.541542 1.404221 -15.557932 13.209377 3.958807 -21.532300 14.689615 -14.850492 -25.263930 2.213265 -70.853146 -43.830491 33.694805 94.106489 -89.132071 -68.602694 22.511936 -29.001100 -31.628374 17.867759 19.599439 4.807270 23.570124 19.343164 -15.039281 -43.142399 33.921236 -40.033173 -8.132188 20.387030 -11.058280 
-35.786880 126.773796 90.864838 -86.103524 3.382528 79.993527 22.840629 10.504665 6.756546 -0.943929 5.983835 28.922514 -2.792954 2.133848 -27.054538 nan nan nan -10.603912 -13.104137 -15.312138 2.331184 -15.386475 31.557575 4.192076 1.077168 -13.186661 nan nan nan -4.808675 0.723083 8.675060 6.570799 -5.064712 8.237363 4.075901 -1.927002 -3.542164 1.507343 -15.447124 13.144877 3.964107 -21.781706 14.554643 -14.809115 -25.260331 2.243332 -70.734679 -43.933432 33.614157 85.534224 -89.031736 -60.018079 22.452848 -29.208064 -31.859115 17.890597 19.576132 4.744135 23.387746 19.548426 -15.118068 -43.107007 33.871973 -39.777305 -8.726922 20.378700 -11.637790 
-35.741398 126.729240 90.894142 -86.072612 3.387915 79.954364 22.811088 10.489301 6.844125 -0.979899 5.941037 28.765753 -2.837619 2.162166 -27.031093 nan nan nan -10.670729 -13.145525 -15.178328 2.405726 -15.483392 31.312275 4.276815 1.062785 -13.034968 nan nan nan -4.770393 0.787102 8.627361 6.571088 -5.063650 8.345858 4.074676 -1.902861 -3.595202 1.468941 -15.514032 13.090332 3.990353 -21.941181 14.520576 -14.793821 -25.388632 2.287198 -70.584523 -43.893851 33.496710 85.874917 -88.865751 -60.473200 22.259166 -29.261676 -31.841344 17.859647 19.685795 4.780363 23.257590 19.406510 -15.199523 -43.318724 33.905417 -40.052355 -8.589242 20.299786 -11.958565 
